<svg id="Pictograms" xmlns="http://www.w3.org/2000/svg" viewBox="0 0 240 240"><defs><style>.cls-1{fill:#fff;}.cls-2,.cls-4,.cls-5{fill:#f0ab00;}.cls-3{fill:#e35500;}.cls-4{opacity:0.7;}.cls-5{opacity:0.4;}</style></defs><path class="cls-1" d="M208.72,57.29c-1.05-5.39-8.63-8.72-21.93-9.63-12.29-.85-28.13.45-44.6,3.65s-31.64,7.92-42.73,13.3c-12,5.82-17.78,11.75-16.73,17.14,1.35,7,13.55,9.86,29.59,9.86a178.21,178.21,0,0,0,21-1.37L144.11,100l1.34-1.48,1.62,1.17L157,86.1C184.82,79.68,210.82,68.13,208.72,57.29Zm-3.93.76a3.51,3.51,0,0,1-.41,2.19l-13.17,1.84a3,3,0,0,0,0-.42c-.5-2.62-3.33-4.32-8.57-5.17l6.32-4.64C199.88,52.91,204.34,55.7,204.79,58.05ZM148.5,83.82l-.68.12.1-1.94c2.25-.46,4.69-1,7.23-1.63l.39,2C153.23,82.86,150.88,83.35,148.5,83.82ZM100,78.29,116,77.38a3.91,3.91,0,0,0,2.32,1.43L112.87,82c-8.57-.08-13.16-1.32-13.39-2.53C99.42,79.17,99.61,78.77,100,78.29Zm35.05-13.52,1.21,1.51c-2.36.55-4.61,1.13-6.7,1.73l-2.79-1.18C129.37,66.12,132.14,65.43,135.08,64.77ZM121,64.37l-5-2.12c4.33-1.46,9-2.83,13.81-4.07l2.51,3.15C128.7,62.2,124.83,63.22,121,64.37Zm37.4-3.58-1.36,1.93c-2.14.22-4.42.51-6.8.87V61.88C153.05,61.45,155.78,61.08,158.42,60.79Zm-8.16-3V53.94c4.89-.79,9.67-1.4,14.27-1.82l-3.05,4.34C157.9,56.78,154.14,57.24,150.26,57.83Zm-2,18.31c2-.42,4-.87,5.81-1.33l.34,1.67q-3,.7-6.25,1.4Zm-3.7-3.33c-11.76,2.28-19.69,2.7-23.35,2.44,3.29-1.62,10.8-4.2,22.56-6.48s19.7-2.71,23.36-2.44C163.8,68,156.29,70.53,144.53,72.81Zm23.32-10.42a38.53,38.53,0,0,0-5.51-.07h-.11l1.44-2q4-.32,7.55-.38Zm-21.59,1.85-3.28.6-2.34.48-1.19-1.49,2.44-.49c1.46-.29,2.92-.55,4.37-.81Zm-22.52,5.63c-3.43,1.24-5.68,2.34-6.95,3.46l-9.84.56a103.55,103.55,0,0,1,13.79-5.29Zm1.66,9.41.54,0c2.13-.09,4.54-.3,7.12-.6l-1.59,2.06c-3.73.48-7.15.81-10.25,1Zm13.32-1.4c1.78-.27,3.6-.59,5.46-.93l-.09,1.74c-2.4.45-4.71.86-6.93,1.21Zm5.15,4.92-.1,1.88c-4,.68-7.84,1.25-11.63,1.7l1.52-2C137.32,83.92,140.81,83.36,143.87,82.8ZM159,79.38c3.56-.93,7.21-2,10.72-3.15l2.35,1.65c-4,1.27-8.27,2.46-12.67,3.54Zm-.78-3.88-.34-1.71c2.12-.59,4.07-1.2,5.83-1.81l2,1.39C163.42,74.09,160.93,74.8,158.26,75.5Zm9.94-5.27A16.64,16.64,0,0,0,170.47,69l10.08-1.4a89.77,89.77,0,0,1-10.12,4.19Zm4.36-5.55a2.35,2.35,0,0,0-.31-.56L177.83,60c7.42.45,9.33,2,9.42,2.41a.74.74,0,0,1,0,.21Zm10.13-13.22-6.08,4.48c-.68,0-1.38,0-2.11-.06-2.44,0-5.07,0-7.86.19l3.08-4.35c3.22-.2,6.34-.32,9.3-.32C180.27,51.4,181.49,51.42,182.69,51.46ZM143,55.23l3.31-.6v3.85q-2.55.44-5.14.93c-1.39.27-2.89.58-4.45.92l-2.57-3.2C137,56.45,140,55.81,143,55.23Zm-41.74,13c2.82-1.37,5.93-2.7,9.26-4l4.73,2c-6.91,2.38-13.08,5.15-16.61,8.12l-8.14.46A51.8,51.8,0,0,1,101.21,68.21ZM86.66,81A3.34,3.34,0,0,1,87,79l8.61-.49a4.08,4.08,0,0,0,0,1.67c.62,3.21,5,4.83,11,5.46l-2.79,1.63C91.91,86.33,87.13,83.44,86.66,81Zm24.48,6.64L114,86c4.47,0,9.33-.37,14.12-.88L126.63,87C121.15,87.45,115.94,87.68,111.14,87.63ZM142.34,89l.39,4.41-4.23-3.82C139.78,89.37,141.06,89.17,142.34,89Zm4.41,4.38-.45-5,3-.55,1.83-.37Zm30.08-17-2.44-1.72c6.56-2.45,12.14-5.25,14.93-8.22l10.88-1.51a55.53,55.53,0,0,1-10,6A123.31,123.31,0,0,1,176.83,76.32Z"/><path class="cls-1" d="M94.22,118c-.69-3.56-5.19-5.65-13.36-6.22a104.85,104.85,0,0,0-25.8,2.11c-9.52,1.85-18.29,4.58-24.72,7.7-7.36,3.58-10.75,7.2-10.06,10.77s5.19,5.65,13.36,6.21c1.42.1,2.93.15,4.5.15a99,99,0,0,0,11.71-.76l5.91,5.33,1.33-1.48L58.71,143l5.5-7.55a97.26,97.26,0,0,0,20-6.68C91.53,125.16,94.91,121.53,94.22,118Zm-3.93.76a.73.73,0,0,1,0,.32L75.1,121.17l7.16-5.28C88.46,116.55,90.18,118.13,90.29,118.73Zm-26.47.94c-1,0-2.09.14-3.12.26v-3c1.89-.3,3.75-.54,5.57-.74Zm3.8,4a47.94,47.94,0,0,1-11.55,3.51,47.35,47.35,0,0,1-12,1.06,48.41,48.41,0,0,1,11.55-3.51A47.33,47.33,0,0,1,67.62,123.7Zm-20.76-.83-4.21-1.79c1.65-.52,3.39-1,5.17-1.47L49.74,122C48.73,122.29,47.77,122.58,46.86,122.87Zm-2.32,9.44c.5,0,1,0,1.54,0l1.33,0-1.56,2c-1.86.17-3.61.26-5.24.31l4-2.31Zm8.34-.51c.9-.13,1.75-.27,2.53-.4l-.09,1.72q-2,.33-3.93.6Zm6.48.57.09-1.78,2.08-.5.35,1.75C61.05,132,60.21,132.2,59.36,132.37Zm6-3.42c1-.34,1.88-.68,2.65-1l2.42,1.71c-1.52.45-3.07.89-4.68,1.29ZM75.9,115.61l-6,4.44c-.39-.09-.81-.17-1.25-.24l2.87-4C73,115.67,74.47,115.62,75.9,115.61Zm-20.08,2.18.88-.16v2.87l-1.86.34L54,121l-1.94-2.43Q53.94,118.15,55.82,117.79Zm-23.73,7.37c1.51-.73,3.16-1.44,4.92-2.12l4.67,2a8.66,8.66,0,0,0-2.08,1.52l-11.18.64A38.1,38.1,0,0,1,32.09,125.16Zm-7.88,6.4a.53.53,0,0,1,0-.13l15-.86c.05.05.1.11.16.16L33,134.48C27.5,134,24.44,132.77,24.21,131.56Zm34.16,5.07-1.58,2.18L55,137.21C56.13,137,57.24,136.84,58.37,136.63Zm24-11.49a71.25,71.25,0,0,1-7.19,3l-3.43-2.42,13.08-1.83C84.15,124.26,83.33,124.69,82.41,125.14Z"/><path class="cls-2" d="M52.09,145.24v-2.06A2.17,2.17,0,0,1,54.26,141h5.42a2.17,2.17,0,0,1,2.17,2.17v9.65l-9.76-4.25Z"/><polygon class="cls-3" points="52.09 149.19 52.09 161.94 61.85 165.52 61.85 152.61 52.09 149.19"/><polygon class="cls-3" points="52.09 162.45 52.09 174.49 61.85 178.94 61.85 166.75 52.09 162.45"/><polygon class="cls-4" points="52.09 149.19 52.09 161.94 61.85 165.52 61.85 151.69 52.09 149.19"/><polygon class="cls-5" points="52.09 162.45 52.09 174.49 61.85 178.94 61.85 166.75 52.09 162.45"/><polygon class="cls-3" points="52.09 175.2 52.09 194.58 61.85 191.69 61.85 179.5 52.09 175.2"/><path class="cls-1" d="M61.85,188.21a9.48,9.48,0,0,0-1.37-.61l-5.81-2c-1.43-.48-2.39-1.46-2.39-2.42V183h-.19v5.8a8.72,8.72,0,0,0,1.28.57l5.82,2a3.35,3.35,0,0,1,2.35,2.08l.31,0Z"/><path class="cls-1" d="M61.85,176a9.86,9.86,0,0,0-1.36-.61l-5.82-2c-1.43-.49-2.39-1.46-2.39-2.41v-.17h-.19v5.8a8.72,8.72,0,0,0,1.28.57l5.82,2c1.43.49,2.39,1.46,2.39,2.42h.27Z"/><path class="cls-1" d="M61.85,163.73a9.86,9.86,0,0,0-1.36-.61l-5.82-2c-1.43-.48-2.39-1.46-2.39-2.42v-.16h-.19v5.81a9.89,9.89,0,0,0,1.28.56l5.82,2c1.43.49,2.39,1.46,2.39,2.42h.27Z"/><path class="cls-1" d="M61.85,149.91a8.83,8.83,0,0,0-1.36-.62l-5.82-2c-1.43-.49-2.39-1.46-2.39-2.42v-.17h-.19v5.81a9.89,9.89,0,0,0,1.28.56l5.82,2c1.43.49,2.39,1.46,2.39,2.42h.27Z"/><path class="cls-1" d="M218.28,97.82c-.69-3.57-5.19-5.66-13.36-6.22-7.12-.49-16.28.26-25.8,2.11s-18.29,4.58-24.71,7.7c-7.37,3.58-10.76,7.2-10.07,10.76s5.19,5.66,13.36,6.22c1.42.09,2.93.14,4.5.14a101.07,101.07,0,0,0,11.71-.75l5.91,5.33,1.34-1.49,1.61,1.18,5.5-7.54a97.87,97.87,0,0,0,19.95-6.68C215.59,105,219,101.38,218.28,97.82ZM195.54,95.6c1.56-.09,3-.14,4.42-.15l-6,4.42a10.35,10.35,0,0,0-1.28-.24Zm-10.78,1.18c2-.3,3.8-.55,5.57-.74l-2.46,3.49c-1,0-2,.14-3.11.26Zm-4.88.85.88-.16v2.88c-.61.1-1.24.21-1.86.33l-.8.16-1.94-2.43Q178,98,179.88,97.63Zm-8,1.83,1.9,2.38c-1.07.28-2,.56-2.92.85l-4.15-1.76C168.36,100.41,170.1,99.92,171.88,99.46ZM156.15,105c1.51-.74,3.16-1.45,4.92-2.13l4.7,2a9.75,9.75,0,0,0-2,1.49l-11.31.65A38.25,38.25,0,0,1,156.15,105Zm.91,9.31c-6.82-.6-8.67-2.28-8.79-2.91a.61.61,0,0,1,0-.14l15-.86.15.17Zm12.86-.15c-1.81.16-3.54.26-5.23.31l3.93-2.3,0,0c.5,0,1,0,1.54,0l1.33,0Zm10.93,4.48-1.77-1.59c1.11-.18,2.22-.37,3.35-.58Zm-5.39-5.1,1.48-1.91c.9-.13,1.75-.26,2.53-.4l-.09,1.72C178.05,113.18,176.75,113.38,175.46,113.55Zm8-1.34.09-1.79c.71-.16,1.4-.33,2.08-.51l.35,1.78Zm-3.29-5.16a48,48,0,0,1-12,1.07,47.48,47.48,0,0,1,11.55-3.51,48,48,0,0,1,12-1.07A47.48,47.48,0,0,1,180.13,107.05Zm9.71,3.72-.4-2c.88-.3,1.71-.61,2.46-.93l.18-.08,2.44,1.72C193,109.93,191.45,110.36,189.84,110.77ZM206.47,105a68.94,68.94,0,0,1-7.19,3l-3.41-2.41,0,0,13-1.81Q207.85,104.31,206.47,105Zm7.86-6.08L199.16,101l7.16-5.27c5,.52,7.81,1.69,8,2.84A.61.61,0,0,1,214.33,98.9Z"/><path class="cls-2" d="M176.15,125.09V123a2.17,2.17,0,0,1,2.17-2.17h5.42a2.18,2.18,0,0,1,2.18,2.17v9.64l-9.77-4.24Z"/><polygon class="cls-3" points="176.15 129.03 176.15 141.79 185.91 145.36 185.91 132.45 176.15 129.03"/><polygon class="cls-3" points="176.15 142.29 176.15 154.34 185.91 158.79 185.91 146.59 176.15 142.29"/><polygon class="cls-4" points="176.15 129.03 176.15 141.79 185.91 145.36 185.91 131.53 176.15 129.03"/><polygon class="cls-5" points="176.15 142.29 176.15 154.34 185.91 158.79 185.91 146.59 176.15 142.29"/><polygon class="cls-3" points="176.15 155.04 176.15 174.42 185.91 171.54 185.91 159.34 176.15 155.04"/><path class="cls-1" d="M185.92,168.06a9.36,9.36,0,0,0-1.37-.61l-5.82-2c-1.43-.49-2.39-1.46-2.39-2.42v-.17h-.19v5.81a8.69,8.69,0,0,0,1.28.56l5.82,2a3.34,3.34,0,0,1,2.35,2.09l.32,0Z"/><path class="cls-1" d="M185.92,155.82a9,9,0,0,0-1.38-.61l-5.81-2c-1.43-.49-2.39-1.46-2.39-2.42v-.17h-.19v5.81a8.69,8.69,0,0,0,1.28.56l5.82,2c1.43.49,2.39,1.46,2.39,2.42h.28Z"/><path class="cls-1" d="M185.92,143.58a9,9,0,0,0-1.38-.61l-5.81-2c-1.43-.49-2.39-1.46-2.39-2.42v-.17h-.19v5.81a8.69,8.69,0,0,0,1.28.56l5.82,2c1.43.49,2.39,1.46,2.39,2.42h.28Z"/><path class="cls-1" d="M185.92,129.75a10.12,10.12,0,0,0-1.38-.61l-5.81-2c-1.43-.49-2.39-1.46-2.39-2.42v-.17h-.19v5.81a9.92,9.92,0,0,0,1.28.57l5.82,2c1.43.49,2.39,1.46,2.39,2.42h.28Z"/><path class="cls-1" d="M163.33,173a136.74,136.74,0,0,0-39.74,12.85c-3,1.48-6.68,3.26-10.83,5.12H35.26v4h68.19c-10.29,4.2-22,8.19-32.39,9.89l.64,3.94c19-3.08,41.78-13.46,53.67-19.37A132.81,132.81,0,0,1,164,176.92c23.63-3.7,39.27,0,39.42.08l1-3.88C203.67,173,187.82,169.13,163.33,173Z"/><path class="cls-2" d="M136.72,104.56V101a3.79,3.79,0,0,1,3.78-3.79H150a3.79,3.79,0,0,1,3.78,3.79v16.81l-17-7.4Z"/><polygon class="cls-3" points="136.72 111.44 136.72 133.67 153.75 139.91 153.75 117.39 136.72 111.44"/><polygon class="cls-3" points="136.72 134.56 136.72 155.55 153.75 163.32 153.75 142.06 136.72 134.56"/><polygon class="cls-4" points="136.72 111.44 136.72 133.67 153.75 139.91 153.75 115.8 136.72 111.44"/><polygon class="cls-5" points="136.72 134.56 136.72 155.55 153.75 163.32 153.75 142.06 136.72 134.56"/><polygon class="cls-3" points="136.72 156.79 136.72 190.57 153.75 185.55 153.75 164.29 136.72 156.79"/><path class="cls-1" d="M153.75,181.78a12.37,12.37,0,0,0-3.37-1.94l-9.08-3.46c-2.77-1.06-4.55-3.28-4.55-5.65v-.3h0v7.92a12.5,12.5,0,0,0,3.15,1.76l9.08,3.47a6.63,6.63,0,0,1,4.5,5l.3,0Z"/><path class="cls-1" d="M153.75,160.44a12.37,12.37,0,0,0-3.37-1.94L141.3,155c-2.77-1.06-4.55-3.28-4.55-5.65v-.3h0V157a12.5,12.5,0,0,0,3.15,1.76l9.08,3.47c2.77,1.06,4.55,3.27,4.55,5.65h.25Z"/><path class="cls-1" d="M153.75,139.1a12.37,12.37,0,0,0-3.37-1.94l-9.08-3.46c-2.77-1.06-4.55-3.28-4.55-5.65v-.3h0v7.92a12.5,12.5,0,0,0,3.15,1.76L149,140.9c2.77,1.06,4.55,3.27,4.55,5.65h.25Z"/><path class="cls-1" d="M153.75,115a12.37,12.37,0,0,0-3.37-1.94l-9.08-3.46c-2.77-1.06-4.55-3.28-4.55-5.65v-.3h0v7.92a12.2,12.2,0,0,0,3.15,1.76l9.08,3.47c2.77,1.06,4.55,3.28,4.55,5.65h.25Z"/><path class="cls-1" d="M62.68,209.11H22.84v-4H62.68a122.66,122.66,0,0,0,32.44-4.37l21.63-5.93c2.22-.6,4.41-1.27,6.51-2a229.63,229.63,0,0,1,38.4-9.13c22.21-3.21,40.9-2.11,55.54,3.28l-1.39,3.75c-14-5.15-32-6.19-53.57-3.07a225.48,225.48,0,0,0-37.7,9c-2.17.73-4.44,1.42-6.73,2L96.17,204.6A126.75,126.75,0,0,1,62.68,209.11Z"/></svg>